<?xml version="1.0" encoding="UTF-8"?>
<svg id="Layer_1" data-name="Layer 1" xmlns="http://www.w3.org/2000/svg" viewBox="0 0 16 16">
  <defs>
    <style>
      .cls-1 {
        fill: #0d0907;
        stroke-width: 0px;
      }
    </style>
  </defs>
  <rect class="cls-1" x="1" y="7.03" width="1" height="1"/>
  <rect class="cls-1" x="2" y="7.03" width="1" height="1"/>
  <rect class="cls-1" x="2" y="8.03" width="1" height="1"/>
  <rect class="cls-1" x="3" y="7.03" width="1" height="1"/>
  <rect class="cls-1" x="3" y="9.03" width="1" height="1"/>
  <rect class="cls-1" x="4" y="3.03" width="1" height="1"/>
  <rect class="cls-1" x="4" y="4.03" width="1" height="1"/>
  <rect class="cls-1" x="4" y="5.03" width="1" height="1"/>
  <rect class="cls-1" x="4" y="6.03" width="1" height="1"/>
  <rect class="cls-1" x="4" y="7.03" width="1" height="1"/>
  <rect class="cls-1" x="4" y="10.03" width="1" height="1"/>
  <rect class="cls-1" x="5" y="3.03" width="1" height="1"/>
  <rect class="cls-1" x="5" y="11.03" width="1" height="1"/>
  <rect class="cls-1" x="6" y="3.03" width="1" height="1"/>
  <rect class="cls-1" x="6" y="12.03" width="1" height="1"/>
  <rect class="cls-1" x="7" y="3.03" width="1" height="1"/>
  <rect class="cls-1" x="7" y="13.03" width="1" height="1"/>
  <rect class="cls-1" x="8" y="3.03" width="1" height="1"/>
  <rect class="cls-1" x="8" y="13.03" width="1" height="1"/>
  <rect class="cls-1" x="9" y="3.03" width="1" height="1"/>
  <rect class="cls-1" x="9" y="12.03" width="1" height="1"/>
  <rect class="cls-1" x="10" y="3.03" width="1" height="1"/>
  <rect class="cls-1" x="10" y="11.03" width="1" height="1"/>
  <rect class="cls-1" x="11" y="3.03" width="1" height="1"/>
  <rect class="cls-1" x="11" y="4.03" width="1" height="1"/>
  <rect class="cls-1" x="11" y="5.03" width="1" height="1"/>
  <rect class="cls-1" x="11" y="6.03" width="1" height="1"/>
  <rect class="cls-1" x="11" y="7.03" width="1" height="1"/>
  <rect class="cls-1" x="11" y="10.03" width="1" height="1"/>
  <rect class="cls-1" x="12" y="7.03" width="1" height="1"/>
  <rect class="cls-1" x="12" y="9.03" width="1" height="1"/>
  <rect class="cls-1" x="13" y="7.03" width="1" height="1"/>
  <rect class="cls-1" x="13" y="8.03" width="1" height="1"/>
  <rect class="cls-1" x="14" y="7.03" width="1" height="1"/>
</svg>