<?xml version="1.0" encoding="UTF-8"?>
<svg id="Layer_1" data-name="Layer 1" xmlns="http://www.w3.org/2000/svg" viewBox="0 0 16 16">
  <defs>
    <style>
      .cls-1 {
        fill: #0d0907;
        stroke-width: 0px;
      }
    </style>
  </defs>
  <rect class="cls-1" x="7.97" y="1" width="1" height="1"/>
  <rect class="cls-1" x="7.97" y="2" width="1" height="1"/>
  <rect class="cls-1" x="6.97" y="2" width="1" height="1"/>
  <rect class="cls-1" x="7.97" y="3" width="1" height="1"/>
  <rect class="cls-1" x="5.97" y="3" width="1" height="1"/>
  <rect class="cls-1" x="11.97" y="4" width="1" height="1"/>
  <rect class="cls-1" x="10.97" y="4" width="1" height="1"/>
  <rect class="cls-1" x="9.97" y="4" width="1" height="1"/>
  <rect class="cls-1" x="8.97" y="4" width="1" height="1"/>
  <rect class="cls-1" x="7.97" y="4" width="1" height="1"/>
  <rect class="cls-1" x="4.97" y="4" width="1" height="1"/>
  <rect class="cls-1" x="11.97" y="5" width="1" height="1"/>
  <rect class="cls-1" x="3.97" y="5" width="1" height="1"/>
  <rect class="cls-1" x="11.97" y="6" width="1" height="1"/>
  <rect class="cls-1" x="2.97" y="6" width="1" height="1"/>
  <rect class="cls-1" x="11.97" y="7" width="1" height="1"/>
  <rect class="cls-1" x="1.97" y="7" width="1" height="1"/>
  <rect class="cls-1" x="11.97" y="8" width="1" height="1"/>
  <rect class="cls-1" x="1.97" y="8" width="1" height="1"/>
  <rect class="cls-1" x="11.97" y="9" width="1" height="1"/>
  <rect class="cls-1" x="2.97" y="9" width="1" height="1"/>
  <rect class="cls-1" x="11.97" y="10" width="1" height="1"/>
  <rect class="cls-1" x="3.97" y="10" width="1" height="1"/>
  <rect class="cls-1" x="11.97" y="11" width="1" height="1"/>
  <rect class="cls-1" x="10.97" y="11" width="1" height="1"/>
  <rect class="cls-1" x="9.97" y="11" width="1" height="1"/>
  <rect class="cls-1" x="8.97" y="11" width="1" height="1"/>
  <rect class="cls-1" x="7.97" y="11" width="1" height="1"/>
  <rect class="cls-1" x="4.97" y="11" width="1" height="1"/>
  <rect class="cls-1" x="7.97" y="12" width="1" height="1"/>
  <rect class="cls-1" x="5.97" y="12" width="1" height="1"/>
  <rect class="cls-1" x="7.97" y="13" width="1" height="1"/>
  <rect class="cls-1" x="6.97" y="13" width="1" height="1"/>
  <rect class="cls-1" x="7.97" y="14" width="1" height="1"/>
</svg>