<?xml version="1.0" encoding="UTF-8"?>
<svg id="Layer_1" data-name="Layer 1" xmlns="http://www.w3.org/2000/svg" viewBox="0 0 16 16">
  <defs>
    <style>
      .cls-1 {
        fill: #0d0907;
        stroke-width: 0px;
      }
    </style>
  </defs>
  <rect class="cls-1" x="7.03" y="14" width="1" height="1"/>
  <rect class="cls-1" x="7.03" y="13" width="1" height="1"/>
  <rect class="cls-1" x="8.03" y="13" width="1" height="1"/>
  <rect class="cls-1" x="7.03" y="12" width="1" height="1"/>
  <rect class="cls-1" x="9.03" y="12" width="1" height="1"/>
  <rect class="cls-1" x="3.03" y="11" width="1" height="1"/>
  <rect class="cls-1" x="4.03" y="11" width="1" height="1"/>
  <rect class="cls-1" x="5.03" y="11" width="1" height="1"/>
  <rect class="cls-1" x="6.03" y="11" width="1" height="1"/>
  <rect class="cls-1" x="7.03" y="11" width="1" height="1"/>
  <rect class="cls-1" x="10.03" y="11" width="1" height="1"/>
  <rect class="cls-1" x="3.03" y="10" width="1" height="1"/>
  <rect class="cls-1" x="11.03" y="10" width="1" height="1"/>
  <rect class="cls-1" x="3.03" y="9" width="1" height="1"/>
  <rect class="cls-1" x="12.03" y="9" width="1" height="1"/>
  <rect class="cls-1" x="3.03" y="8" width="1" height="1"/>
  <rect class="cls-1" x="13.03" y="8" width="1" height="1"/>
  <rect class="cls-1" x="3.03" y="7" width="1" height="1"/>
  <rect class="cls-1" x="13.03" y="7" width="1" height="1"/>
  <rect class="cls-1" x="3.03" y="6" width="1" height="1"/>
  <rect class="cls-1" x="12.03" y="6" width="1" height="1"/>
  <rect class="cls-1" x="3.03" y="5" width="1" height="1"/>
  <rect class="cls-1" x="11.03" y="5" width="1" height="1"/>
  <rect class="cls-1" x="3.03" y="4" width="1" height="1"/>
  <rect class="cls-1" x="4.03" y="4" width="1" height="1"/>
  <rect class="cls-1" x="5.03" y="4" width="1" height="1"/>
  <rect class="cls-1" x="6.03" y="4" width="1" height="1"/>
  <rect class="cls-1" x="7.03" y="4" width="1" height="1"/>
  <rect class="cls-1" x="10.03" y="4" width="1" height="1"/>
  <rect class="cls-1" x="7.03" y="3" width="1" height="1"/>
  <rect class="cls-1" x="9.03" y="3" width="1" height="1"/>
  <rect class="cls-1" x="7.03" y="2" width="1" height="1"/>
  <rect class="cls-1" x="8.03" y="2" width="1" height="1"/>
  <rect class="cls-1" x="7.03" y="1" width="1" height="1"/>
</svg>