<?xml version="1.0" encoding="UTF-8"?>
<svg id="Layer_2" xmlns="http://www.w3.org/2000/svg" viewBox="0 0 45.29 45.29">
  <defs>
    <style>
      .cls-1 {
        fill: #f5f5f5;
      }
    </style>
  </defs>
  <g id="Layer_1-2" data-name="Layer_1">
    <g>
      <rect class="cls-1" x="38.02" y="17.33" width="1" height="1"/>
      <rect class="cls-1" x="37.02" y="17.33" width="1" height="1"/>
      <rect class="cls-1" x="37.02" y="18.33" width="1" height="1"/>
      <rect class="cls-1" x="36.02" y="18.33" width="1" height="1"/>
      <rect class="cls-1" x="36.02" y="17.33" width="1" height="1"/>
      <rect class="cls-1" x="36.02" y="19.33" width="1" height="1"/>
      <rect class="cls-1" x="35.02" y="18.33" width="1" height="1"/>
      <rect class="cls-1" x="35.02" y="19.33" width="1" height="1"/>
      <rect class="cls-1" x="35.02" y="17.33" width="1" height="1"/>
      <rect class="cls-1" x="35.02" y="20.33" width="1" height="1"/>
      <rect class="cls-1" x="18.02" y="19.33" width="1" height="1"/>
      <rect class="cls-1" x="16.02" y="19.33" width="1" height="1"/>
      <rect class="cls-1" x="17.02" y="19.33" width="1" height="1"/>
      <rect class="cls-1" x="14.02" y="19.33" width="1" height="1"/>
      <rect class="cls-1" x="15.02" y="19.33" width="1" height="1"/>
      <rect class="cls-1" x="13.02" y="19.33" width="1" height="1"/>
      <rect class="cls-1" x="12.02" y="19.33" width="1" height="1"/>
      <rect class="cls-1" x="24.02" y="19.33" width="1" height="1"/>
      <rect class="cls-1" x="22.02" y="19.33" width="1" height="1"/>
      <rect class="cls-1" x="23.02" y="19.33" width="1" height="1"/>
      <rect class="cls-1" x="21.02" y="19.33" width="1" height="1"/>
      <rect class="cls-1" x="19.02" y="19.33" width="1" height="1"/>
      <rect class="cls-1" x="20.02" y="19.33" width="1" height="1"/>
      <rect class="cls-1" x="18.02" y="18.33" width="1" height="1"/>
      <rect class="cls-1" x="17.02" y="18.33" width="1" height="1"/>
      <rect class="cls-1" x="16.02" y="18.33" width="1" height="1"/>
      <rect class="cls-1" x="15.02" y="18.33" width="1" height="1"/>
      <rect class="cls-1" x="14.02" y="18.33" width="1" height="1"/>
      <rect class="cls-1" x="13.02" y="18.33" width="1" height="1"/>
      <rect class="cls-1" x="12.02" y="18.33" width="1" height="1"/>
      <rect class="cls-1" x="11.02" y="18.33" width="1" height="1"/>
      <rect class="cls-1" x="24.02" y="18.33" width="1" height="1"/>
      <rect class="cls-1" x="23.02" y="18.33" width="1" height="1"/>
      <rect class="cls-1" x="22.02" y="18.33" width="1" height="1"/>
      <rect class="cls-1" x="21.02" y="18.33" width="1" height="1"/>
      <rect class="cls-1" x="20.02" y="18.33" width="1" height="1"/>
      <rect class="cls-1" x="19.02" y="18.33" width="1" height="1"/>
      <rect class="cls-1" x="18.02" y="16.33" width="1" height="1"/>
      <rect class="cls-1" x="25.02" y="16.33" width="1" height="1"/>
      <rect class="cls-1" x="24.02" y="16.33" width="1" height="1"/>
      <rect class="cls-1" x="23.02" y="16.33" width="1" height="1"/>
      <rect class="cls-1" x="22.02" y="16.33" width="1" height="1"/>
      <rect class="cls-1" x="21.02" y="16.33" width="1" height="1"/>
      <rect class="cls-1" x="20.02" y="16.33" width="1" height="1"/>
      <rect class="cls-1" x="19.02" y="16.33" width="1" height="1"/>
      <rect class="cls-1" x="25.02" y="15.33" width="1" height="1"/>
      <rect class="cls-1" x="24.02" y="15.33" width="1" height="1"/>
      <rect class="cls-1" x="23.02" y="15.33" width="1" height="1"/>
      <rect class="cls-1" x="22.02" y="15.33" width="1" height="1"/>
      <rect class="cls-1" x="21.02" y="15.33" width="1" height="1"/>
      <rect class="cls-1" x="20.02" y="15.33" width="1" height="1"/>
      <rect class="cls-1" x="25.02" y="14.33" width="1" height="1"/>
      <rect class="cls-1" x="24.02" y="14.33" width="1" height="1"/>
      <rect class="cls-1" x="22.02" y="14.33" width="1" height="1"/>
      <rect class="cls-1" x="23.02" y="14.33" width="1" height="1"/>
      <rect class="cls-1" x="21.02" y="14.33" width="1" height="1"/>
      <rect class="cls-1" x="27.02" y="14.33" width="1" height="1"/>
      <rect class="cls-1" x="26.02" y="16.33" width="1" height="1"/>
      <rect class="cls-1" x="26.02" y="15.33" width="1" height="1"/>
      <rect class="cls-1" x="26.02" y="17.33" width="1" height="1"/>
      <rect class="cls-1" x="26.02" y="14.33" width="1" height="1"/>
      <rect class="cls-1" x="27.02" y="18.33" width="1" height="1"/>
      <rect class="cls-1" x="27.02" y="16.33" width="1" height="1"/>
      <rect class="cls-1" x="27.02" y="17.33" width="1" height="1"/>
      <rect class="cls-1" x="28.02" y="18.33" width="1" height="1"/>
      <rect class="cls-1" x="28.02" y="17.33" width="1" height="1"/>
      <rect class="cls-1" x="28.02" y="19.33" width="1" height="1"/>
      <rect class="cls-1" x="29.02" y="18.33" width="1" height="1"/>
      <rect class="cls-1" x="29.02" y="19.33" width="1" height="1"/>
      <rect class="cls-1" x="29.02" y="17.33" width="1" height="1"/>
      <rect class="cls-1" x="29.02" y="20.33" width="1" height="1"/>
      <rect class="cls-1" x="30.02" y="21.33" width="1" height="1"/>
      <rect class="cls-1" x="30.02" y="19.33" width="1" height="1"/>
      <rect class="cls-1" x="30.02" y="20.33" width="1" height="1"/>
      <rect class="cls-1" x="30.02" y="18.33" width="1" height="1"/>
      <rect class="cls-1" x="30.02" y="17.33" width="1" height="1"/>
      <rect class="cls-1" x="31.02" y="18.33" width="1" height="1"/>
      <rect class="cls-1" x="31.02" y="19.33" width="1" height="1"/>
      <rect class="cls-1" x="31.02" y="17.33" width="1" height="1"/>
      <rect class="cls-1" x="31.02" y="21.33" width="1" height="1"/>
      <rect class="cls-1" x="31.02" y="22.33" width="1" height="1"/>
      <rect class="cls-1" x="31.02" y="20.33" width="1" height="1"/>
      <rect class="cls-1" x="34.02" y="19.33" width="1" height="1"/>
      <rect class="cls-1" x="34.02" y="20.33" width="1" height="1"/>
      <rect class="cls-1" x="34.02" y="21.33" width="1" height="1"/>
      <rect class="cls-1" x="34.02" y="18.33" width="1" height="1"/>
      <rect class="cls-1" x="34.02" y="17.33" width="1" height="1"/>
      <rect class="cls-1" x="33.02" y="18.33" width="1" height="1"/>
      <rect class="cls-1" x="33.02" y="22.33" width="1" height="1"/>
      <rect class="cls-1" x="33.02" y="21.33" width="1" height="1"/>
      <rect class="cls-1" x="33.02" y="17.33" width="1" height="1"/>
      <rect class="cls-1" x="33.02" y="20.33" width="1" height="1"/>
      <rect class="cls-1" x="33.02" y="19.33" width="1" height="1"/>
      <rect class="cls-1" x="32.02" y="23.33" width="1" height="1"/>
      <rect class="cls-1" x="32.02" y="22.33" width="1" height="1"/>
      <rect class="cls-1" x="32.02" y="19.33" width="1" height="1"/>
      <rect class="cls-1" x="32.02" y="21.33" width="1" height="1"/>
      <rect class="cls-1" x="32.02" y="20.33" width="1" height="1"/>
      <rect class="cls-1" x="32.02" y="17.33" width="1" height="1"/>
      <rect class="cls-1" x="32.02" y="18.33" width="1" height="1"/>
      <rect class="cls-1" x="29.02" y="22.33" width="1" height="1"/>
      <rect class="cls-1" x="30.02" y="23.33" width="1" height="1"/>
      <rect class="cls-1" x="29.02" y="23.33" width="1" height="1"/>
      <rect class="cls-1" x="28.02" y="21.33" width="1" height="1"/>
      <rect class="cls-1" x="28.02" y="23.33" width="1" height="1"/>
      <rect class="cls-1" x="28.02" y="22.33" width="1" height="1"/>
      <rect class="cls-1" x="27.02" y="21.33" width="1" height="1"/>
      <rect class="cls-1" x="27.02" y="20.33" width="1" height="1"/>
      <rect class="cls-1" x="27.02" y="22.33" width="1" height="1"/>
      <rect class="cls-1" x="26.02" y="19.33" width="1" height="1"/>
      <rect class="cls-1" x="26.02" y="20.33" width="1" height="1"/>
      <rect class="cls-1" x="26.02" y="21.33" width="1" height="1"/>
      <rect class="cls-1" x="25.02" y="20.33" width="1" height="1"/>
      <rect class="cls-1" x="25.02" y="19.33" width="1" height="1"/>
      <rect class="cls-1" x="25.02" y="18.33" width="1" height="1"/>
      <rect class="cls-1" x="17.02" y="22.33" width="1" height="1"/>
      <rect class="cls-1" x="16.02" y="22.33" width="1" height="1"/>
      <rect class="cls-1" x="15.02" y="22.33" width="1" height="1"/>
      <rect class="cls-1" x="14.02" y="22.33" width="1" height="1"/>
      <rect class="cls-1" x="12.02" y="22.33" width="1" height="1"/>
      <rect class="cls-1" x="13.02" y="22.33" width="1" height="1"/>
      <rect class="cls-1" x="11.02" y="22.33" width="1" height="1"/>
      <rect class="cls-1" x="25.02" y="22.33" width="1" height="1"/>
      <rect class="cls-1" x="23.02" y="22.33" width="1" height="1"/>
      <rect class="cls-1" x="24.02" y="22.33" width="1" height="1"/>
      <rect class="cls-1" x="22.02" y="22.33" width="1" height="1"/>
      <rect class="cls-1" x="21.02" y="22.33" width="1" height="1"/>
      <rect class="cls-1" x="20.02" y="22.33" width="1" height="1"/>
      <rect class="cls-1" x="19.02" y="22.33" width="1" height="1"/>
      <rect class="cls-1" x="18.02" y="22.33" width="1" height="1"/>
      <rect class="cls-1" x="17.02" y="21.33" width="1" height="1"/>
      <rect class="cls-1" x="16.02" y="21.33" width="1" height="1"/>
      <rect class="cls-1" x="14.02" y="21.33" width="1" height="1"/>
      <rect class="cls-1" x="15.02" y="21.33" width="1" height="1"/>
      <rect class="cls-1" x="13.02" y="21.33" width="1" height="1"/>
      <rect class="cls-1" x="12.02" y="21.33" width="1" height="1"/>
      <rect class="cls-1" x="11.02" y="21.33" width="1" height="1"/>
      <rect class="cls-1" x="10.02" y="21.33" width="1" height="1"/>
      <rect class="cls-1" x="24.02" y="21.33" width="1" height="1"/>
      <rect class="cls-1" x="23.02" y="21.33" width="1" height="1"/>
      <rect class="cls-1" x="22.02" y="21.33" width="1" height="1"/>
      <rect class="cls-1" x="21.02" y="21.33" width="1" height="1"/>
      <rect class="cls-1" x="20.02" y="21.33" width="1" height="1"/>
      <rect class="cls-1" x="19.02" y="21.33" width="1" height="1"/>
      <rect class="cls-1" x="18.02" y="21.33" width="1" height="1"/>
      <rect class="cls-1" x="16.02" y="24.33" width="1" height="1"/>
      <rect class="cls-1" x="17.02" y="24.33" width="1" height="1"/>
      <rect class="cls-1" x="14.02" y="24.33" width="1" height="1"/>
      <rect class="cls-1" x="15.02" y="24.33" width="1" height="1"/>
      <rect class="cls-1" x="12.02" y="24.33" width="1" height="1"/>
      <rect class="cls-1" x="13.02" y="24.33" width="1" height="1"/>
      <rect class="cls-1" x="10.02" y="24.33" width="1" height="1"/>
      <rect class="cls-1" x="11.02" y="24.33" width="1" height="1"/>
      <rect class="cls-1" x="9.02" y="24.33" width="1" height="1"/>
      <rect class="cls-1" x="23.02" y="24.33" width="1" height="1"/>
      <rect class="cls-1" x="22.02" y="24.33" width="1" height="1"/>
      <rect class="cls-1" x="21.02" y="24.33" width="1" height="1"/>
      <rect class="cls-1" x="19.02" y="24.33" width="1" height="1"/>
      <rect class="cls-1" x="20.02" y="24.33" width="1" height="1"/>
      <rect class="cls-1" x="18.02" y="24.33" width="1" height="1"/>
      <rect class="cls-1" x="23.02" y="25.33" width="1" height="1"/>
      <rect class="cls-1" x="24.02" y="25.33" width="1" height="1"/>
      <rect class="cls-1" x="22.02" y="25.33" width="1" height="1"/>
      <rect class="cls-1" x="21.02" y="25.33" width="1" height="1"/>
      <rect class="cls-1" x="20.02" y="25.33" width="1" height="1"/>
      <rect class="cls-1" x="16.02" y="26.33" width="1" height="1"/>
      <rect class="cls-1" x="17.02" y="26.33" width="1" height="1"/>
      <rect class="cls-1" x="14.02" y="26.33" width="1" height="1"/>
      <rect class="cls-1" x="15.02" y="26.33" width="1" height="1"/>
      <rect class="cls-1" x="12.02" y="26.33" width="1" height="1"/>
      <rect class="cls-1" x="13.02" y="26.33" width="1" height="1"/>
      <rect class="cls-1" x="11.02" y="26.33" width="1" height="1"/>
      <rect class="cls-1" x="18.02" y="26.33" width="1" height="1"/>
      <rect class="cls-1" x="16.02" y="25.33" width="1" height="1"/>
      <rect class="cls-1" x="17.02" y="25.33" width="1" height="1"/>
      <rect class="cls-1" x="15.02" y="25.33" width="1" height="1"/>
      <rect class="cls-1" x="14.02" y="25.33" width="1" height="1"/>
      <rect class="cls-1" x="13.02" y="25.33" width="1" height="1"/>
      <rect class="cls-1" x="12.02" y="25.33" width="1" height="1"/>
      <rect class="cls-1" x="10.02" y="25.33" width="1" height="1"/>
      <rect class="cls-1" x="11.02" y="25.33" width="1" height="1"/>
      <rect class="cls-1" x="25.02" y="26.33" width="1" height="1"/>
      <rect class="cls-1" x="23.02" y="26.33" width="1" height="1"/>
      <rect class="cls-1" x="24.02" y="26.33" width="1" height="1"/>
      <rect class="cls-1" x="22.02" y="26.33" width="1" height="1"/>
      <rect class="cls-1" x="21.02" y="26.33" width="1" height="1"/>
      <rect class="cls-1" x="20.02" y="26.33" width="1" height="1"/>
      <rect class="cls-1" x="19.02" y="25.33" width="1" height="1"/>
      <rect class="cls-1" x="19.02" y="26.33" width="1" height="1"/>
      <rect class="cls-1" x="18.02" y="25.33" width="1" height="1"/>
      <rect class="cls-1" x="17.02" y="27.33" width="1" height="1"/>
      <rect class="cls-1" x="16.02" y="27.33" width="1" height="1"/>
      <rect class="cls-1" x="15.02" y="27.33" width="1" height="1"/>
      <rect class="cls-1" x="14.02" y="27.33" width="1" height="1"/>
      <rect class="cls-1" x="13.02" y="27.33" width="1" height="1"/>
      <rect class="cls-1" x="12.02" y="27.33" width="1" height="1"/>
      <rect class="cls-1" x="26.02" y="27.33" width="1" height="1"/>
      <rect class="cls-1" x="25.02" y="27.33" width="1" height="1"/>
      <rect class="cls-1" x="24.02" y="27.33" width="1" height="1"/>
      <rect class="cls-1" x="23.02" y="27.33" width="1" height="1"/>
      <rect class="cls-1" x="22.02" y="27.33" width="1" height="1"/>
      <rect class="cls-1" x="21.02" y="27.33" width="1" height="1"/>
      <rect class="cls-1" x="19.02" y="27.33" width="1" height="1"/>
      <rect class="cls-1" x="20.02" y="27.33" width="1" height="1"/>
      <rect class="cls-1" x="18.02" y="27.33" width="1" height="1"/>
      <rect class="cls-1" x="16.02" y="28.33" width="1" height="1"/>
      <rect class="cls-1" x="17.02" y="28.33" width="1" height="1"/>
      <rect class="cls-1" x="15.02" y="28.33" width="1" height="1"/>
      <rect class="cls-1" x="14.02" y="28.33" width="1" height="1"/>
      <rect class="cls-1" x="13.02" y="28.33" width="1" height="1"/>
      <rect class="cls-1" x="27.02" y="28.33" width="1" height="1"/>
      <rect class="cls-1" x="25.02" y="28.33" width="1" height="1"/>
      <rect class="cls-1" x="26.02" y="28.33" width="1" height="1"/>
      <rect class="cls-1" x="23.02" y="28.33" width="1" height="1"/>
      <rect class="cls-1" x="24.02" y="28.33" width="1" height="1"/>
      <rect class="cls-1" x="22.02" y="28.33" width="1" height="1"/>
      <rect class="cls-1" x="21.02" y="28.33" width="1" height="1"/>
      <rect class="cls-1" x="20.02" y="28.33" width="1" height="1"/>
      <rect class="cls-1" x="19.02" y="28.33" width="1" height="1"/>
      <rect class="cls-1" x="18.02" y="28.33" width="1" height="1"/>
      <rect class="cls-1" x="16.02" y="29.33" width="1" height="1"/>
      <rect class="cls-1" x="17.02" y="29.33" width="1" height="1"/>
      <rect class="cls-1" x="15.02" y="29.33" width="1" height="1"/>
      <rect class="cls-1" x="14.02" y="29.33" width="1" height="1"/>
      <rect class="cls-1" x="27.02" y="29.33" width="1" height="1"/>
      <rect class="cls-1" x="28.02" y="29.33" width="1" height="1"/>
      <rect class="cls-1" x="25.02" y="29.33" width="1" height="1"/>
      <rect class="cls-1" x="26.02" y="29.33" width="1" height="1"/>
      <rect class="cls-1" x="24.02" y="29.33" width="1" height="1"/>
      <rect class="cls-1" x="23.02" y="29.33" width="1" height="1"/>
      <rect class="cls-1" x="22.02" y="29.33" width="1" height="1"/>
      <rect class="cls-1" x="21.02" y="29.33" width="1" height="1"/>
      <rect class="cls-1" x="20.02" y="29.33" width="1" height="1"/>
      <rect class="cls-1" x="19.02" y="29.33" width="1" height="1"/>
      <rect class="cls-1" x="18.02" y="29.33" width="1" height="1"/>
      <rect class="cls-1" x="17.02" y="30.33" width="1" height="1"/>
      <rect class="cls-1" x="16.02" y="30.33" width="1" height="1"/>
      <rect class="cls-1" x="15.02" y="30.33" width="1" height="1"/>
      <rect class="cls-1" x="29.02" y="30.33" width="1" height="1"/>
      <rect class="cls-1" x="27.02" y="30.33" width="1" height="1"/>
      <rect class="cls-1" x="28.02" y="30.33" width="1" height="1"/>
      <rect class="cls-1" x="26.02" y="30.33" width="1" height="1"/>
      <rect class="cls-1" x="25.02" y="30.33" width="1" height="1"/>
      <rect class="cls-1" x="23.02" y="30.33" width="1" height="1"/>
      <rect class="cls-1" x="24.02" y="30.33" width="1" height="1"/>
      <rect class="cls-1" x="22.02" y="30.33" width="1" height="1"/>
      <rect class="cls-1" x="21.02" y="30.33" width="1" height="1"/>
      <rect class="cls-1" x="20.02" y="30.33" width="1" height="1"/>
      <rect class="cls-1" x="19.02" y="30.33" width="1" height="1"/>
      <rect class="cls-1" x="18.02" y="30.33" width="1" height="1"/>
      <rect class="cls-1" x="17.02" y="31.33" width="1" height="1"/>
      <rect class="cls-1" x="16.02" y="31.33" width="1" height="1"/>
      <rect class="cls-1" x="30.02" y="31.33" width="1" height="1"/>
      <rect class="cls-1" x="29.02" y="31.33" width="1" height="1"/>
      <rect class="cls-1" x="28.02" y="31.33" width="1" height="1"/>
      <rect class="cls-1" x="27.02" y="31.33" width="1" height="1"/>
      <rect class="cls-1" x="26.02" y="31.33" width="1" height="1"/>
      <rect class="cls-1" x="25.02" y="31.33" width="1" height="1"/>
      <rect class="cls-1" x="24.02" y="31.33" width="1" height="1"/>
      <rect class="cls-1" x="23.02" y="31.33" width="1" height="1"/>
      <rect class="cls-1" x="22.02" y="31.33" width="1" height="1"/>
      <rect class="cls-1" x="21.02" y="31.33" width="1" height="1"/>
      <rect class="cls-1" x="20.02" y="31.33" width="1" height="1"/>
      <rect class="cls-1" x="19.02" y="31.33" width="1" height="1"/>
      <rect class="cls-1" x="18.02" y="31.33" width="1" height="1"/>
      <rect class="cls-1" x="32.02" y="31.33" width="1" height="1"/>
      <rect class="cls-1" x="32.02" y="30.33" width="1" height="1"/>
      <rect class="cls-1" x="33.02" y="30.33" width="1" height="1"/>
      <rect class="cls-1" x="31.02" y="30.33" width="1" height="1"/>
      <rect class="cls-1" x="34.02" y="29.33" width="1" height="1"/>
      <rect class="cls-1" x="32.02" y="29.33" width="1" height="1"/>
      <rect class="cls-1" x="33.02" y="29.33" width="1" height="1"/>
      <rect class="cls-1" x="31.02" y="29.33" width="1" height="1"/>
      <rect class="cls-1" x="30.02" y="29.33" width="1" height="1"/>
      <rect class="cls-1" x="37.02" y="25.33" width="1" height="1"/>
      <rect class="cls-1" x="36.02" y="25.33" width="1" height="1"/>
      <rect class="cls-1" x="38.02" y="25.33" width="1" height="1"/>
      <rect class="cls-1" x="37.02" y="26.33" width="1" height="1"/>
      <rect class="cls-1" x="35.02" y="26.33" width="1" height="1"/>
      <rect class="cls-1" x="36.02" y="26.33" width="1" height="1"/>
      <rect class="cls-1" x="36.02" y="27.33" width="1" height="1"/>
      <rect class="cls-1" x="35.02" y="27.33" width="1" height="1"/>
      <rect class="cls-1" x="34.02" y="27.33" width="1" height="1"/>
      <rect class="cls-1" x="35.02" y="28.33" width="1" height="1"/>
      <rect class="cls-1" x="34.02" y="28.33" width="1" height="1"/>
      <rect class="cls-1" x="33.02" y="28.33" width="1" height="1"/>
      <rect class="cls-1" x="39.02" y="20.33" width="1" height="1"/>
      <rect class="cls-1" x="39.02" y="18.33" width="1" height="1"/>
      <rect class="cls-1" x="39.02" y="19.33" width="1" height="1"/>
      <rect class="cls-1" x="38.02" y="19.33" width="1" height="1"/>
      <rect class="cls-1" x="39.02" y="24.33" width="1" height="1"/>
      <rect class="cls-1" x="39.02" y="22.33" width="1" height="1"/>
      <rect class="cls-1" x="39.02" y="23.33" width="1" height="1"/>
      <rect class="cls-1" x="38.02" y="23.33" width="1" height="1"/>
      <rect class="cls-1" x="37.02" y="21.33" width="1" height="1"/>
      <rect class="cls-1" x="36.02" y="21.33" width="1" height="1"/>
      <rect class="cls-1" x="38.02" y="21.33" width="1" height="1"/>
      <rect class="cls-1" x="36.02" y="22.33" width="1" height="1"/>
      <rect class="cls-1" x="37.02" y="22.33" width="1" height="1"/>
      <rect class="cls-1" x="35.02" y="22.33" width="1" height="1"/>
      <rect class="cls-1" x="36.02" y="23.33" width="1" height="1"/>
      <rect class="cls-1" x="35.02" y="23.33" width="1" height="1"/>
      <rect class="cls-1" x="34.02" y="23.33" width="1" height="1"/>
      <rect class="cls-1" x="35.02" y="24.33" width="1" height="1"/>
      <rect class="cls-1" x="34.02" y="24.33" width="1" height="1"/>
      <rect class="cls-1" x="33.02" y="24.33" width="1" height="1"/>
      <rect class="cls-1" x="32.02" y="27.33" width="1" height="1"/>
      <rect class="cls-1" x="32.02" y="26.33" width="1" height="1"/>
      <rect class="cls-1" x="33.02" y="26.33" width="1" height="1"/>
      <rect class="cls-1" x="31.02" y="26.33" width="1" height="1"/>
      <rect class="cls-1" x="34.02" y="25.33" width="1" height="1"/>
      <rect class="cls-1" x="32.02" y="25.33" width="1" height="1"/>
      <rect class="cls-1" x="33.02" y="25.33" width="1" height="1"/>
      <rect class="cls-1" x="31.02" y="25.33" width="1" height="1"/>
      <rect class="cls-1" x="30.02" y="25.33" width="1" height="1"/>
      <rect class="cls-1" x="30.02" y="27.33" width="1" height="1"/>
      <rect class="cls-1" x="29.02" y="27.33" width="1" height="1"/>
      <rect class="cls-1" x="28.02" y="27.33" width="1" height="1"/>
      <rect class="cls-1" x="29.02" y="26.33" width="1" height="1"/>
      <rect class="cls-1" x="28.02" y="26.33" width="1" height="1"/>
      <rect class="cls-1" x="27.02" y="26.33" width="1" height="1"/>
      <rect class="cls-1" x="27.02" y="25.33" width="1" height="1"/>
      <rect class="cls-1" x="28.02" y="25.33" width="1" height="1"/>
      <rect class="cls-1" x="26.02" y="25.33" width="1" height="1"/>
      <rect class="cls-1" x="27.02" y="24.33" width="1" height="1"/>
      <rect class="cls-1" x="26.02" y="24.33" width="1" height="1"/>
      <rect class="cls-1" x="25.02" y="24.33" width="1" height="1"/>
      <rect class="cls-1" x="26.02" y="23.33" width="1" height="1"/>
      <rect class="cls-1" x="25.02" y="23.33" width="1" height="1"/>
      <rect class="cls-1" x="24.02" y="23.33" width="1" height="1"/>
      <rect x="36.02" y="16.33" width="1" height="1"/>
      <rect x="37.02" y="16.33" width="1" height="1"/>
      <rect x="35.02" y="16.33" width="1" height="1"/>
      <rect x="34.02" y="16.33" width="1" height="1"/>
      <rect x="33.02" y="16.33" width="1" height="1"/>
      <rect x="31.02" y="16.33" width="1" height="1"/>
      <rect x="32.02" y="16.33" width="1" height="1"/>
      <rect x="29.02" y="16.33" width="1" height="1"/>
      <rect x="30.02" y="16.33" width="1" height="1"/>
      <rect x="28.02" y="16.33" width="1" height="1"/>
      <rect x="38.02" y="16.33" width="1" height="1"/>
      <rect x="39.02" y="25.33" width="1" height="1"/>
      <rect x="39.02" y="21.33" width="1" height="1"/>
      <rect x="39.02" y="17.33" width="1" height="1"/>
      <rect x="38.02" y="26.33" width="1" height="1"/>
      <rect x="38.02" y="24.33" width="1" height="1"/>
      <rect x="38.02" y="22.33" width="1" height="1"/>
      <rect x="38.02" y="20.33" width="1" height="1"/>
      <rect x="38.02" y="18.33" width="1" height="1"/>
      <rect x="37.02" y="27.33" width="1" height="1"/>
      <rect x="37.02" y="24.33" width="1" height="1"/>
      <rect x="37.02" y="23.33" width="1" height="1"/>
      <rect x="37.02" y="20.33" width="1" height="1"/>
      <rect x="37.02" y="19.33" width="1" height="1"/>
      <rect x="36.02" y="28.33" width="1" height="1"/>
      <rect x="36.02" y="24.33" width="1" height="1"/>
      <rect x="36.02" y="20.33" width="1" height="1"/>
      <rect x="35.02" y="29.33" width="1" height="1"/>
      <rect x="35.02" y="25.33" width="1" height="1"/>
      <rect x="35.02" y="21.33" width="1" height="1"/>
      <rect x="34.02" y="30.33" width="1" height="1"/>
      <rect x="34.02" y="26.33" width="1" height="1"/>
      <rect x="34.02" y="22.33" width="1" height="1"/>
      <rect x="33.02" y="31.33" width="1" height="1"/>
      <rect x="33.02" y="27.33" width="1" height="1"/>
      <rect x="33.02" y="23.33" width="1" height="1"/>
      <rect x="32.02" y="32.33" width="1" height="1"/>
      <rect x="32.02" y="28.33" width="1" height="1"/>
      <rect x="32.02" y="24.33" width="1" height="1"/>
      <rect x="31.02" y="32.33" width="1" height="1"/>
      <rect x="31.02" y="31.33" width="1" height="1"/>
      <rect x="31.02" y="28.33" width="1" height="1"/>
      <rect x="31.02" y="27.33" width="1" height="1"/>
      <rect x="31.02" y="24.33" width="1" height="1"/>
      <rect x="31.02" y="23.33" width="1" height="1"/>
      <rect x="30.02" y="32.33" width="1" height="1"/>
      <rect x="30.02" y="30.33" width="1" height="1"/>
      <rect x="30.02" y="28.33" width="1" height="1"/>
      <rect x="30.02" y="26.33" width="1" height="1"/>
      <rect x="30.02" y="24.33" width="1" height="1"/>
      <rect x="30.02" y="22.33" width="1" height="1"/>
      <rect x="29.02" y="32.33" width="1" height="1"/>
      <rect x="29.02" y="29.33" width="1" height="1"/>
      <rect x="29.02" y="28.33" width="1" height="1"/>
      <rect x="29.02" y="25.33" width="1" height="1"/>
      <rect x="29.02" y="24.33" width="1" height="1"/>
      <rect x="29.02" y="21.33" width="1" height="1"/>
      <rect x="28.02" y="32.33" width="1" height="1"/>
      <rect x="28.02" y="28.33" width="1" height="1"/>
      <rect x="28.02" y="24.33" width="1" height="1"/>
      <rect x="28.02" y="20.33" width="1" height="1"/>
      <rect x="28.02" y="14.33" width="1" height="1"/>
      <rect x="28.02" y="13.33" width="1" height="1"/>
      <rect x="27.02" y="32.33" width="1" height="1"/>
      <rect x="27.02" y="27.33" width="1" height="1"/>
      <rect x="27.02" y="23.33" width="1" height="1"/>
      <rect x="27.02" y="19.33" width="1" height="1"/>
      <rect x="27.02" y="15.33" width="1" height="1"/>
      <rect x="27.02" y="13.33" width="1" height="1"/>
      <rect x="26.02" y="32.33" width="1" height="1"/>
      <rect x="26.02" y="26.33" width="1" height="1"/>
      <rect x="26.02" y="22.33" width="1" height="1"/>
      <rect x="26.02" y="18.33" width="1" height="1"/>
      <rect x="26.02" y="13.33" width="1" height="1"/>
      <rect x="25.02" y="32.33" width="1" height="1"/>
      <rect x="25.02" y="25.33" width="1" height="1"/>
      <rect x="25.02" y="21.33" width="1" height="1"/>
      <rect x="25.02" y="17.33" width="1" height="1"/>
      <rect x="25.02" y="13.33" width="1" height="1"/>
      <rect x="24.02" y="32.33" width="1" height="1"/>
      <rect x="24.02" y="24.33" width="1" height="1"/>
      <rect x="24.02" y="20.33" width="1" height="1"/>
      <rect x="24.02" y="17.33" width="1" height="1"/>
      <rect x="24.02" y="13.33" width="1" height="1"/>
      <rect x="23.02" y="32.33" width="1" height="1"/>
      <rect x="23.02" y="23.33" width="1" height="1"/>
      <rect x="23.02" y="20.33" width="1" height="1"/>
      <rect x="23.02" y="17.33" width="1" height="1"/>
      <rect x="23.02" y="13.33" width="1" height="1"/>
      <rect x="22.02" y="32.33" width="1" height="1"/>
      <rect x="22.02" y="23.33" width="1" height="1"/>
      <rect x="22.02" y="20.33" width="1" height="1"/>
      <rect x="22.02" y="17.33" width="1" height="1"/>
      <rect x="22.02" y="13.33" width="1" height="1"/>
      <rect x="21.02" y="32.33" width="1" height="1"/>
      <rect x="21.02" y="23.33" width="1" height="1"/>
      <rect x="21.02" y="20.33" width="1" height="1"/>
      <rect x="21.02" y="17.33" width="1" height="1"/>
      <rect x="21.02" y="13.33" width="1" height="1"/>
      <rect x="20.02" y="32.33" width="1" height="1"/>
      <rect x="20.02" y="23.33" width="1" height="1"/>
      <rect x="20.02" y="20.33" width="1" height="1"/>
      <rect x="20.02" y="17.33" width="1" height="1"/>
      <rect x="20.02" y="14.33" width="1" height="1"/>
      <rect x="19.02" y="32.33" width="1" height="1"/>
      <rect x="19.02" y="23.33" width="1" height="1"/>
      <rect x="19.02" y="20.33" width="1" height="1"/>
      <rect x="19.02" y="17.33" width="1" height="1"/>
      <rect x="19.02" y="15.33" width="1" height="1"/>
      <rect x="18.02" y="32.33" width="1" height="1"/>
      <rect x="18.02" y="23.33" width="1" height="1"/>
      <rect x="18.02" y="20.33" width="1" height="1"/>
      <rect x="18.02" y="17.33" width="1" height="1"/>
      <rect x="18.02" y="15.33" width="1" height="1"/>
      <rect x="17.02" y="32.33" width="1" height="1"/>
      <rect x="17.02" y="23.33" width="1" height="1"/>
      <rect x="17.02" y="20.33" width="1" height="1"/>
      <rect x="17.02" y="17.33" width="1" height="1"/>
      <rect x="17.02" y="16.33" width="1" height="1"/>
      <rect x="16.02" y="32.33" width="1" height="1"/>
      <rect x="16.02" y="23.33" width="1" height="1"/>
      <rect x="16.02" y="20.33" width="1" height="1"/>
      <rect x="16.02" y="17.33" width="1" height="1"/>
      <rect x="15.02" y="31.33" width="1" height="1"/>
      <rect x="15.02" y="23.33" width="1" height="1"/>
      <rect x="15.02" y="20.33" width="1" height="1"/>
      <rect x="15.02" y="17.33" width="1" height="1"/>
      <rect x="14.02" y="30.33" width="1" height="1"/>
      <rect x="14.02" y="23.33" width="1" height="1"/>
      <rect x="14.02" y="20.33" width="1" height="1"/>
      <rect x="14.02" y="17.33" width="1" height="1"/>
      <rect x="13.02" y="29.33" width="1" height="1"/>
      <rect x="13.02" y="23.33" width="1" height="1"/>
      <rect x="13.02" y="20.33" width="1" height="1"/>
      <rect x="13.02" y="17.33" width="1" height="1"/>
      <rect x="12.02" y="28.33" width="1" height="1"/>
      <rect x="12.02" y="23.33" width="1" height="1"/>
      <rect x="12.02" y="20.33" width="1" height="1"/>
      <rect x="12.02" y="17.33" width="1" height="1"/>
      <rect x="11.02" y="27.33" width="1" height="1"/>
      <rect x="11.02" y="23.33" width="1" height="1"/>
      <rect x="11.02" y="20.33" width="1" height="1"/>
      <rect x="11.02" y="19.33" width="1" height="1"/>
      <rect x="11.02" y="17.33" width="1" height="1"/>
      <rect x="10.02" y="26.33" width="1" height="1"/>
      <rect x="10.02" y="23.33" width="1" height="1"/>
      <rect x="10.02" y="22.33" width="1" height="1"/>
      <rect x="10.02" y="20.33" width="1" height="1"/>
      <rect x="10.02" y="18.33" width="1" height="1"/>
      <rect x="10.02" y="17.33" width="1" height="1"/>
      <rect x="9.02" y="25.33" width="1" height="1"/>
      <rect x="9.02" y="23.33" width="1" height="1"/>
      <rect x="9.02" y="21.33" width="1" height="1"/>
      <rect x="9.02" y="20.33" width="1" height="1"/>
      <rect x="8.02" y="24.33" width="1" height="1"/>
      <rect x="8.02" y="23.33" width="1" height="1"/>
    </g>
  </g>
</svg>