<?xml version="1.0" encoding="utf-8"?>
<!-- Generator: Adobe Illustrator 28.3.0, SVG Export Plug-In . SVG Version: 6.00 Build 0)  -->
<svg version="1.1" id="Layer_1" xmlns="http://www.w3.org/2000/svg" xmlns:xlink="http://www.w3.org/1999/xlink" x="0px" y="0px"
	 viewBox="0 0 32 32" style="enable-background:new 0 0 32 32;" xml:space="preserve">
<style type="text/css">
	.st0{fill:#F5F5F5;}
	.st1{fill:#0D0709;}
</style>
<g id="XMLID_00000036232443103101556260000001292388891032996006_">
	<rect class="st0" width="32" height="32"/>
	<g>
		<rect x="31" y="9" class="st1" width="1" height="1"/>
		<rect x="30" y="21" class="st1" width="1" height="1"/>
		<rect x="30" y="20" class="st1" width="1" height="1"/>
		<rect x="30" y="19" class="st1" width="1" height="1"/>
		<rect x="30" y="18" class="st1" width="1" height="1"/>
		<rect x="30" y="17" class="st1" width="1" height="1"/>
		<rect x="30" y="16" class="st1" width="1" height="1"/>
		<rect x="30" y="11" class="st1" width="1" height="1"/>
		<rect x="30" y="10" class="st1" width="1" height="1"/>
		<rect x="30" y="9" class="st1" width="1" height="1"/>
		<rect x="30" y="8" class="st1" width="1" height="1"/>
		<rect x="30" y="7" class="st1" width="1" height="1"/>
		<rect x="29" y="23" class="st1" width="1" height="1"/>
		<rect x="29" y="22" class="st1" width="1" height="1"/>
		<rect x="29" y="21" class="st1" width="1" height="1"/>
		<rect x="29" y="20" class="st0" width="1" height="1"/>
		<rect x="29" y="19" class="st1" width="1" height="1"/>
		<rect x="29" y="18" class="st0" width="1" height="1"/>
		<rect x="29" y="17" class="st1" width="1" height="1"/>
		<rect x="29" y="16" class="st1" width="1" height="1"/>
		<rect x="29" y="15" class="st1" width="1" height="1"/>
		<rect x="29" y="14" class="st1" width="1" height="1"/>
		<rect x="29" y="13" class="st1" width="1" height="1"/>
		<rect x="29" y="12" class="st1" width="1" height="1"/>
		<rect x="29" y="11" class="st1" width="1" height="1"/>
		<rect x="29" y="10" class="st0" width="1" height="1"/>
		<rect x="29" y="9" class="st0" width="1" height="1"/>
		<rect x="29" y="8" class="st1" width="1" height="1"/>
		<rect x="29" y="7" class="st1" width="1" height="1"/>
		<rect x="28" y="24" class="st1" width="1" height="1"/>
		<rect x="28" y="23" class="st1" width="1" height="1"/>
		<rect x="28" y="22" class="st1" width="1" height="1"/>
		<rect x="28" y="21" class="st0" width="1" height="1"/>
		<rect x="28" y="20" class="st1" width="1" height="1"/>
		<rect x="28" y="19" class="st1" width="1" height="1"/>
		<rect x="28" y="18" class="st1" width="1" height="1"/>
		<rect x="28" y="17" class="st1" width="1" height="1"/>
		<rect x="28" y="16" class="st1" width="1" height="1"/>
		<rect x="28" y="15" class="st1" width="1" height="1"/>
		<rect x="28" y="14" class="st1" width="1" height="1"/>
		<rect x="28" y="13" class="st0" width="1" height="1"/>
		<rect x="28" y="12" class="st0" width="1" height="1"/>
		<rect x="28" y="11" class="st0" width="1" height="1"/>
		<rect x="28" y="10" class="st0" width="1" height="1"/>
		<rect x="28" y="9" class="st0" width="1" height="1"/>
		<rect x="28" y="8" class="st1" width="1" height="1"/>
		<rect x="28" y="7" class="st1" width="1" height="1"/>
		<rect x="28" y="6" class="st1" width="1" height="1"/>
		<rect x="28" y="5" class="st1" width="1" height="1"/>
		<rect x="28" y="4" class="st1" width="1" height="1"/>
		<rect x="27" y="25" class="st1" width="1" height="1"/>
		<rect x="27" y="24" class="st1" width="1" height="1"/>
		<rect x="27" y="23" class="st1" width="1" height="1"/>
		<rect x="27" y="22" class="st1" width="1" height="1"/>
		<rect x="27" y="21" class="st1" width="1" height="1"/>
		<rect x="27" y="20" class="st1" width="1" height="1"/>
		<rect x="27" y="19" class="st1" width="1" height="1"/>
		<rect x="27" y="18" class="st1" width="1" height="1"/>
		<rect x="27" y="17" class="st1" width="1" height="1"/>
		<rect x="27" y="16" class="st0" width="1" height="1"/>
		<rect x="27" y="15" class="st0" width="1" height="1"/>
		<rect x="27" y="14" class="st0" width="1" height="1"/>
		<rect x="27" y="13" class="st0" width="1" height="1"/>
		<rect x="27" y="12" class="st0" width="1" height="1"/>
		<rect x="27" y="11" class="st0" width="1" height="1"/>
		<rect x="27" y="10" class="st1" width="1" height="1"/>
		<rect x="27" y="9" class="st1" width="1" height="1"/>
		<rect x="27" y="8" class="st1" width="1" height="1"/>
		<rect x="27" y="4" class="st1" width="1" height="1"/>
		<rect x="27" y="2" class="st1" width="1" height="1"/>
		<rect x="27" y="1" class="st1" width="1" height="1"/>
		<rect x="26" y="26" class="st1" width="1" height="1"/>
		<rect x="26" y="25" class="st1" width="1" height="1"/>
		<rect x="26" y="24" class="st1" width="1" height="1"/>
		<rect x="26" y="23" class="st1" width="1" height="1"/>
		<rect x="26" y="22" class="st1" width="1" height="1"/>
		<rect x="26" y="21" class="st1" width="1" height="1"/>
		<rect x="26" y="20" class="st1" width="1" height="1"/>
		<rect x="26" y="19" class="st0" width="1" height="1"/>
		<rect x="26" y="18" class="st0" width="1" height="1"/>
		<rect x="26" y="17" class="st0" width="1" height="1"/>
		<rect x="26" y="16" class="st0" width="1" height="1"/>
		<rect x="26" y="15" class="st0" width="1" height="1"/>
		<rect x="26" y="14" class="st0" width="1" height="1"/>
		<rect x="26" y="13" class="st1" width="1" height="1"/>
		<rect x="26" y="12" class="st1" width="1" height="1"/>
		<rect x="26" y="11" class="st1" width="1" height="1"/>
		<rect x="26" y="5" class="st1" width="1" height="1"/>
		<rect x="26" y="4" class="st1" width="1" height="1"/>
		<rect x="26" y="2" class="st1" width="1" height="1"/>
		<rect x="26" y="1" class="st1" width="1" height="1"/>
		<rect x="25" y="27" class="st1" width="1" height="1"/>
		<rect x="25" y="26" class="st1" width="1" height="1"/>
		<rect x="25" y="25" class="st0" width="1" height="1"/>
		<rect x="25" y="24" class="st1" width="1" height="1"/>
		<rect x="25" y="23" class="st1" width="1" height="1"/>
		<rect x="25" y="22" class="st0" width="1" height="1"/>
		<rect x="25" y="21" class="st0" width="1" height="1"/>
		<rect x="25" y="20" class="st1" width="1" height="1"/>
		<rect x="25" y="19" class="st0" width="1" height="1"/>
		<rect x="25" y="18" class="st0" width="1" height="1"/>
		<rect x="25" y="17" class="st0" width="1" height="1"/>
		<rect x="25" y="16" class="st1" width="1" height="1"/>
		<rect x="25" y="15" class="st1" width="1" height="1"/>
		<rect x="25" y="14" class="st1" width="1" height="1"/>
		<rect x="25" y="12" class="st1" width="1" height="1"/>
		<rect x="25" y="11" class="st1" width="1" height="1"/>
		<rect x="25" y="5" class="st1" width="1" height="1"/>
		<rect x="25" y="4" class="st1" width="1" height="1"/>
		<rect x="25" y="3" class="st1" width="1" height="1"/>
		<rect x="25" y="2" class="st1" width="1" height="1"/>
		<rect x="25" y="1" class="st1" width="1" height="1"/>
		<rect x="24" y="27" class="st1" width="1" height="1"/>
		<rect x="24" y="25" class="st1" width="1" height="1"/>
		<rect x="24" y="24" class="st0" width="1" height="1"/>
		<rect x="24" y="23" class="st0" width="1" height="1"/>
		<rect x="24" y="22" class="st1" width="1" height="1"/>
		<rect x="24" y="21" class="st0" width="1" height="1"/>
		<rect x="24" y="20" class="st0" width="1" height="1"/>
		<rect x="24" y="19" class="st1" width="1" height="1"/>
		<rect x="24" y="18" class="st1" width="1" height="1"/>
		<rect x="24" y="17" class="st1" width="1" height="1"/>
		<rect x="24" y="13" class="st1" width="1" height="1"/>
		<rect x="24" y="12" class="st1" width="1" height="1"/>
		<rect x="24" y="11" class="st1" width="1" height="1"/>
		<rect x="24" y="10" class="st1" width="1" height="1"/>
		<rect x="24" y="4" class="st1" width="1" height="1"/>
		<rect x="24" y="1" class="st1" width="1" height="1"/>
		<rect x="23" y="28" class="st1" width="1" height="1"/>
		<rect x="23" y="27" class="st1" width="1" height="1"/>
		<rect x="23" y="25" class="st1" width="1" height="1"/>
		<rect x="23" y="24" class="st1" width="1" height="1"/>
		<rect x="23" y="23" class="st0" width="1" height="1"/>
		<rect x="23" y="22" class="st1" width="1" height="1"/>
		<rect x="23" y="21" class="st1" width="1" height="1"/>
		<rect x="23" y="20" class="st1" width="1" height="1"/>
		<rect x="23" y="15" class="st1" width="1" height="1"/>
		<rect x="23" y="14" class="st1" width="1" height="1"/>
		<rect x="23" y="13" class="st1" width="1" height="1"/>
		<rect x="23" y="12" class="st1" width="1" height="1"/>
		<rect x="23" y="11" class="st1" width="1" height="1"/>
		<rect x="23" y="10" class="st1" width="1" height="1"/>
		<rect x="23" y="9" class="st1" width="1" height="1"/>
		<rect x="23" y="1" class="st1" width="1" height="1"/>
		<rect x="23" class="st1" width="1" height="1"/>
		<rect x="22" y="28" class="st1" width="1" height="1"/>
		<rect x="22" y="27" class="st1" width="1" height="1"/>
		<rect x="22" y="24" class="st1" width="1" height="1"/>
		<rect x="22" y="23" class="st1" width="1" height="1"/>
		<rect x="22" y="19" class="st1" width="1" height="1"/>
		<rect x="22" y="18" class="st1" width="1" height="1"/>
		<rect x="22" y="17" class="st1" width="1" height="1"/>
		<rect x="22" y="16" class="st1" width="1" height="1"/>
		<rect x="22" y="15" class="st1" width="1" height="1"/>
		<rect x="22" y="9" class="st1" width="1" height="1"/>
		<rect x="22" y="8" class="st1" width="1" height="1"/>
		<rect x="21" y="29" class="st1" width="1" height="1"/>
		<rect x="21" y="28" class="st1" width="1" height="1"/>
		<rect x="21" y="27" class="st1" width="1" height="1"/>
		<rect x="21" y="21" class="st1" width="1" height="1"/>
		<rect x="21" y="20" class="st1" width="1" height="1"/>
		<rect x="21" y="19" class="st1" width="1" height="1"/>
		<rect x="21" y="18" class="st0" width="1" height="1"/>
		<rect x="21" y="17" class="st1" width="1" height="1"/>
		<rect x="21" y="16" class="st1" width="1" height="1"/>
		<rect x="21" y="8" class="st1" width="1" height="1"/>
		<rect x="21" y="7" class="st1" width="1" height="1"/>
		<rect x="20" y="29" class="st1" width="1" height="1"/>
		<rect x="20" y="28" class="st1" width="1" height="1"/>
		<rect x="20" y="23" class="st1" width="1" height="1"/>
		<rect x="20" y="22" class="st1" width="1" height="1"/>
		<rect x="20" y="21" class="st1" width="1" height="1"/>
		<rect x="20" y="20" class="st1" width="1" height="1"/>
		<rect x="20" y="19" class="st0" width="1" height="1"/>
		<rect x="20" y="18" class="st1" width="1" height="1"/>
		<rect x="20" y="17" class="st1" width="1" height="1"/>
		<rect x="20" y="14" class="st1" width="1" height="1"/>
		<rect x="20" y="13" class="st1" width="1" height="1"/>
		<rect x="20" y="12" class="st1" width="1" height="1"/>
		<rect x="20" y="11" class="st1" width="1" height="1"/>
		<rect x="20" y="7" class="st1" width="1" height="1"/>
		<rect x="19" y="29" class="st1" width="1" height="1"/>
		<rect x="19" y="28" class="st1" width="1" height="1"/>
		<rect x="19" y="24" class="st1" width="1" height="1"/>
		<rect x="19" y="23" class="st1" width="1" height="1"/>
		<rect x="19" y="22" class="st0" width="1" height="1"/>
		<rect x="19" y="21" class="st1" width="1" height="1"/>
		<rect x="19" y="20" class="st1" width="1" height="1"/>
		<rect x="19" y="19" class="st1" width="1" height="1"/>
		<rect x="19" y="18" class="st1" width="1" height="1"/>
		<rect x="19" y="15" class="st1" width="1" height="1"/>
		<rect x="19" y="14" class="st1" width="1" height="1"/>
		<rect x="19" y="13" class="st1" width="1" height="1"/>
		<rect x="19" y="12" class="st1" width="1" height="1"/>
		<rect x="19" y="11" class="st1" width="1" height="1"/>
		<rect x="19" y="10" class="st1" width="1" height="1"/>
		<rect x="19" y="7" class="st1" width="1" height="1"/>
		<rect x="19" y="6" class="st1" width="1" height="1"/>
		<rect x="19" y="5" class="st1" width="1" height="1"/>
		<rect x="18" y="30" class="st1" width="1" height="1"/>
		<rect x="18" y="29" class="st1" width="1" height="1"/>
		<rect x="18" y="28" class="st1" width="1" height="1"/>
		<rect x="18" y="24" class="st1" width="1" height="1"/>
		<rect x="18" y="23" class="st0" width="1" height="1"/>
		<rect x="18" y="22" class="st1" width="1" height="1"/>
		<rect x="18" y="21" class="st1" width="1" height="1"/>
		<rect x="18" y="20" class="st1" width="1" height="1"/>
		<rect x="18" y="19" class="st1" width="1" height="1"/>
		<rect x="18" y="18" class="st1" width="1" height="1"/>
		<rect x="18" y="16" class="st1" width="1" height="1"/>
		<rect x="18" y="14" class="st1" width="1" height="1"/>
		<rect x="18" y="12" class="st1" width="1" height="1"/>
		<rect x="18" y="10" class="st1" width="1" height="1"/>
		<rect x="18" y="9" class="st1" width="1" height="1"/>
		<rect x="18" y="5" class="st1" width="1" height="1"/>
		<rect x="18" y="4" class="st1" width="1" height="1"/>
		<rect x="18" y="3" class="st0" width="1" height="1"/>
		<rect x="17" y="30" class="st1" width="1" height="1"/>
		<rect x="17" y="29" class="st1" width="1" height="1"/>
		<rect x="17" y="25" class="st1" width="1" height="1"/>
		<rect x="17" y="24" class="st1" width="1" height="1"/>
		<rect x="17" y="23" class="st1" width="1" height="1"/>
		<rect x="17" y="22" class="st1" width="1" height="1"/>
		<rect x="17" y="21" class="st1" width="1" height="1"/>
		<rect x="17" y="20" class="st1" width="1" height="1"/>
		<rect x="17" y="17" class="st1" width="1" height="1"/>
		<rect x="17" y="15" class="st1" width="1" height="1"/>
		<rect x="17" y="13" class="st1" width="1" height="1"/>
		<rect x="17" y="11" class="st1" width="1" height="1"/>
		<rect x="17" y="9" class="st1" width="1" height="1"/>
		<rect x="17" y="4" class="st1" width="1" height="1"/>
		<rect x="17" y="3" class="st0" width="1" height="1"/>
		<rect x="16" y="30" class="st1" width="1" height="1"/>
		<rect x="16" y="29" class="st1" width="1" height="1"/>
		<rect x="16" y="25" class="st1" width="1" height="1"/>
		<rect x="16" y="24" class="st1" width="1" height="1"/>
		<rect x="16" y="23" class="st1" width="1" height="1"/>
		<rect x="16" y="22" class="st1" width="1" height="1"/>
		<rect x="16" y="21" class="st1" width="1" height="1"/>
		<rect x="16" y="7" class="st1" width="1" height="1"/>
		<rect x="16" y="6" class="st1" width="1" height="1"/>
		<rect x="16" y="3" class="st1" width="1" height="1"/>
		<rect x="16" y="2" class="st0" width="1" height="1"/>
		<rect x="15" y="30" class="st1" width="1" height="1"/>
		<rect x="15" y="29" class="st1" width="1" height="1"/>
		<rect x="15" y="25" class="st1" width="1" height="1"/>
		<rect x="15" y="23" class="st1" width="1" height="1"/>
		<rect x="15" y="22" class="st1" width="1" height="1"/>
		<rect x="15" y="21" class="st1" width="1" height="1"/>
		<rect x="15" y="8" class="st1" width="1" height="1"/>
		<rect x="15" y="6" class="st1" width="1" height="1"/>
		<rect x="15" y="5" class="st1" width="1" height="1"/>
		<rect x="15" y="3" class="st1" width="1" height="1"/>
		<rect x="15" y="2" class="st0" width="1" height="1"/>
		<rect x="14" y="30" class="st1" width="1" height="1"/>
		<rect x="14" y="29" class="st1" width="1" height="1"/>
		<rect x="14" y="24" class="st1" width="1" height="1"/>
		<rect x="14" y="23" class="st1" width="1" height="1"/>
		<rect x="14" y="22" class="st1" width="1" height="1"/>
		<rect x="14" y="9" class="st1" width="1" height="1"/>
		<rect x="14" y="8" class="st1" width="1" height="1"/>
		<rect x="14" y="7" class="st1" width="1" height="1"/>
		<rect x="14" y="6" class="st1" width="1" height="1"/>
		<rect x="14" y="5" class="st1" width="1" height="1"/>
		<rect x="14" y="4" class="st0" width="1" height="1"/>
		<rect x="14" y="2" class="st1" width="1" height="1"/>
		<rect x="13" y="30" class="st1" width="1" height="1"/>
		<rect x="13" y="29" class="st1" width="1" height="1"/>
		<rect x="13" y="25" class="st1" width="1" height="1"/>
		<rect x="13" y="23" class="st1" width="1" height="1"/>
		<rect x="13" y="22" class="st1" width="1" height="1"/>
		<rect x="13" y="9" class="st1" width="1" height="1"/>
		<rect x="13" y="8" class="st1" width="1" height="1"/>
		<rect x="13" y="7" class="st1" width="1" height="1"/>
		<rect x="13" y="5" class="st1" width="1" height="1"/>
		<rect x="13" y="4" class="st1" width="1" height="1"/>
		<rect x="13" y="2" class="st1" width="1" height="1"/>
		<rect x="12" y="30" class="st1" width="1" height="1"/>
		<rect x="12" y="29" class="st1" width="1" height="1"/>
		<rect x="12" y="25" class="st1" width="1" height="1"/>
		<rect x="12" y="24" class="st1" width="1" height="1"/>
		<rect x="12" y="23" class="st1" width="1" height="1"/>
		<rect x="12" y="22" class="st1" width="1" height="1"/>
		<rect x="12" y="9" class="st1" width="1" height="1"/>
		<rect x="12" y="8" class="st1" width="1" height="1"/>
		<rect x="12" y="7" class="st1" width="1" height="1"/>
		<rect x="12" y="6" class="st1" width="1" height="1"/>
		<rect x="12" y="4" class="st1" width="1" height="1"/>
		<rect x="12" y="2" class="st1" width="1" height="1"/>
		<rect x="11" y="30" class="st1" width="1" height="1"/>
		<rect x="11" y="29" class="st1" width="1" height="1"/>
		<rect x="11" y="23" class="st1" width="1" height="1"/>
		<rect x="11" y="22" class="st1" width="1" height="1"/>
		<rect x="11" y="9" class="st1" width="1" height="1"/>
		<rect x="11" y="8" class="st1" width="1" height="1"/>
		<rect x="11" y="7" class="st1" width="1" height="1"/>
		<rect x="11" y="5" class="st1" width="1" height="1"/>
		<rect x="11" y="4" class="st1" width="1" height="1"/>
		<rect x="11" y="2" class="st1" width="1" height="1"/>
		<rect x="10" y="30" class="st1" width="1" height="1"/>
		<rect x="10" y="29" class="st1" width="1" height="1"/>
		<rect x="10" y="25" class="st1" width="1" height="1"/>
		<rect x="10" y="24" class="st1" width="1" height="1"/>
		<rect x="10" y="22" class="st1" width="1" height="1"/>
		<rect x="10" y="9" class="st1" width="1" height="1"/>
		<rect x="10" y="8" class="st1" width="1" height="1"/>
		<rect x="10" y="7" class="st1" width="1" height="1"/>
		<rect x="10" y="6" class="st1" width="1" height="1"/>
		<rect x="10" y="4" class="st1" width="1" height="1"/>
		<rect x="10" y="2" class="st1" width="1" height="1"/>
		<rect x="9" y="30" class="st1" width="1" height="1"/>
		<rect x="9" y="29" class="st1" width="1" height="1"/>
		<rect x="9" y="25" class="st1" width="1" height="1"/>
		<rect x="9" y="24" class="st1" width="1" height="1"/>
		<rect x="9" y="23" class="st1" width="1" height="1"/>
		<rect x="9" y="22" class="st1" width="1" height="1"/>
		<rect x="9" y="9" class="st1" width="1" height="1"/>
		<rect x="9" y="8" class="st1" width="1" height="1"/>
		<rect x="9" y="7" class="st1" width="1" height="1"/>
		<rect x="9" y="5" class="st1" width="1" height="1"/>
		<rect x="9" y="4" class="st1" width="1" height="1"/>
		<rect x="9" y="2" class="st1" width="1" height="1"/>
		<rect x="8" y="30" class="st1" width="1" height="1"/>
		<rect x="8" y="29" class="st1" width="1" height="1"/>
		<rect x="8" y="25" class="st1" width="1" height="1"/>
		<rect x="8" y="24" class="st1" width="1" height="1"/>
		<rect x="8" y="22" class="st1" width="1" height="1"/>
		<rect x="8" y="9" class="st1" width="1" height="1"/>
		<rect x="8" y="8" class="st1" width="1" height="1"/>
		<rect x="8" y="7" class="st1" width="1" height="1"/>
		<rect x="8" y="6" class="st1" width="1" height="1"/>
		<rect x="8" y="4" class="st1" width="1" height="1"/>
		<rect x="8" y="2" class="st1" width="1" height="1"/>
		<rect x="7" y="30" class="st1" width="1" height="1"/>
		<rect x="7" y="29" class="st1" width="1" height="1"/>
		<rect x="7" y="25" class="st1" width="1" height="1"/>
		<rect x="7" y="24" class="st1" width="1" height="1"/>
		<rect x="7" y="23" class="st1" width="1" height="1"/>
		<rect x="7" y="22" class="st1" width="1" height="1"/>
		<rect x="7" y="9" class="st1" width="1" height="1"/>
		<rect x="7" y="8" class="st1" width="1" height="1"/>
		<rect x="7" y="7" class="st1" width="1" height="1"/>
		<rect x="7" y="5" class="st1" width="1" height="1"/>
		<rect x="7" y="4" class="st1" width="1" height="1"/>
		<rect x="7" y="2" class="st1" width="1" height="1"/>
		<rect x="6" y="30" class="st1" width="1" height="1"/>
		<rect x="6" y="29" class="st1" width="1" height="1"/>
		<rect x="6" y="25" class="st1" width="1" height="1"/>
		<rect x="6" y="24" class="st1" width="1" height="1"/>
		<rect x="6" y="22" class="st1" width="1" height="1"/>
		<rect x="6" y="9" class="st1" width="1" height="1"/>
		<rect x="6" y="8" class="st1" width="1" height="1"/>
		<rect x="6" y="7" class="st1" width="1" height="1"/>
		<rect x="6" y="6" class="st1" width="1" height="1"/>
		<rect x="6" y="4" class="st1" width="1" height="1"/>
		<rect x="6" y="2" class="st1" width="1" height="1"/>
		<rect x="5" y="29" class="st1" width="1" height="1"/>
		<rect x="5" y="25" class="st1" width="1" height="1"/>
		<rect x="5" y="23" class="st1" width="1" height="1"/>
		<rect x="5" y="21" class="st1" width="1" height="1"/>
		<rect x="5" y="9" class="st1" width="1" height="1"/>
		<rect x="5" y="8" class="st1" width="1" height="1"/>
		<rect x="5" y="7" class="st1" width="1" height="1"/>
		<rect x="5" y="5" class="st1" width="1" height="1"/>
		<rect x="5" y="3" class="st0" width="1" height="1"/>
		<rect x="5" y="2" class="st1" width="1" height="1"/>
		<rect x="4" y="29" class="st1" width="1" height="1"/>
		<rect x="4" y="28" class="st1" width="1" height="1"/>
		<rect x="4" y="24" class="st1" width="1" height="1"/>
		<rect x="4" y="23" class="st1" width="1" height="1"/>
		<rect x="4" y="21" class="st1" width="1" height="1"/>
		<rect x="4" y="8" class="st1" width="1" height="1"/>
		<rect x="4" y="6" class="st1" width="1" height="1"/>
		<rect x="4" y="5" class="st1" width="1" height="1"/>
		<rect x="4" y="3" class="st1" width="1" height="1"/>
		<rect x="3" y="29" class="st1" width="1" height="1"/>
		<rect x="3" y="28" class="st1" width="1" height="1"/>
		<rect x="3" y="24" class="st1" width="1" height="1"/>
		<rect x="3" y="23" class="st1" width="1" height="1"/>
		<rect x="3" y="22" class="st1" width="1" height="1"/>
		<rect x="3" y="20" class="st1" width="1" height="1"/>
		<rect x="3" y="7" class="st1" width="1" height="1"/>
		<rect x="3" y="6" class="st1" width="1" height="1"/>
		<rect x="3" y="4" class="st0" width="1" height="1"/>
		<rect x="3" y="3" class="st1" width="1" height="1"/>
		<rect x="2" y="28" class="st1" width="1" height="1"/>
		<rect x="2" y="23" class="st1" width="1" height="1"/>
		<rect x="2" y="21" class="st1" width="1" height="1"/>
		<rect x="2" y="20" class="st1" width="1" height="1"/>
		<rect x="2" y="5" class="st0" width="1" height="1"/>
		<rect x="2" y="4" class="st1" width="1" height="1"/>
		<rect x="1" y="22" class="st1" width="1" height="1"/>
		<rect x="1" y="20" class="st1" width="1" height="1"/>
		<rect x="1" y="19" class="st1" width="1" height="1"/>
		<rect x="1" y="18" class="st1" width="1" height="1"/>
		<rect x="1" y="5" class="st1" width="1" height="1"/>
		<rect x="1" y="4" class="st1" width="1" height="1"/>
		<rect y="17" class="st1" width="1" height="1"/>
		<rect y="16" class="st1" width="1" height="1"/>
		<rect y="15" class="st1" width="1" height="1"/>
		<rect y="14" class="st1" width="1" height="1"/>
		<rect y="13" class="st1" width="1" height="1"/>
		<rect y="12" class="st1" width="1" height="1"/>
		<rect y="11" class="st1" width="1" height="1"/>
		<rect y="10" class="st1" width="1" height="1"/>
		<rect y="9" class="st1" width="1" height="1"/>
		<rect y="8" class="st1" width="1" height="1"/>
		<rect y="7" class="st1" width="1" height="1"/>
		<rect y="6" class="st1" width="1" height="1"/>
	</g>
</g>
</svg>
